{"accessors" : [{"bufferView" : 0, "byteOffset" : 0, "componentType" : 5123, "count" : 18144, "type" : "SCALAR", "max" : [18143], "min" : [0]}, {"bufferView" : 1, "byteOffset" : 0, "componentType" : 5126, "count" : 18144, "type" : "VEC3", "max" : [500.0039978027344, 499.9994812011719, 491.4595031738281], "min" : [-499.9960021972656, -500.0005187988281, -491.4595031738281], "name" : "POSITION"}, {"bufferView" : 1, "byteOffset" : 12, "componentType" : 5126, "count" : 18144, "type" : "VEC3", "max" : [0.9990010857582092, 0.9990005493164062, 1.0000044107437134], "min" : [-0.9990004897117615, -0.9990005493164062, -1.0000044107437134], "name" : "NORMAL"}, {"bufferView" : 1, "byteOffset" : 24, "componentType" : 5126, "count" : 18144, "type" : "VEC2", "max" : [1, 1], "min" : [0, -0.00010001659393310547], "name" : "TEXCOORD_0"}], "asset" : {"generator" : "Aspose.3D 21.11", "version" : "2.0"}, "buffers" : [{"uri" : "data:application/octet-stream;base64,", "byteLength" : 616904}], "bufferViews" : [{"buffer" : 0, "byteOffset" : 0, "byteLength" : 36288, "target" : 34963}, {"buffer" : 0, "byteOffset" : 36292, "byteLength" : 580608, "byteStride" : 32, "target" : 34962}], "images" : [{"uri" : "data:image/png;base64,"}], "materials" : [{"name" : "Default OBJ.003", "pbrMetallicRoughness" : {"baseColorFactor" : [1, 1, 1, 1], "baseColorTexture" : {"index" : 0, "texCoord" : 0}, "metallicFactor" : 0, "roughnessFactor" : 0.8999999761581421}, "emissiveFactor" : [0, 0, 0], "alphaMode" : "OPAQUE", "doubleSided" : false}], "meshes" : [{"primitives" : [{"attributes" : {"POSITION" : 1, "NORMAL" : 2, "TEXCOORD_0" : 3}, "indices" : 0, "material" : 0, "mode" : 4}]}], "nodes" : [{"matrix" : [0.010030931793153286, 0, 0, 0, 0, -1.3477444000761779E-09, 0.010030930518486504, 0, 0, -0.010030930518486504, -1.3477444000761779E-09, 0, 0, 0, 0, 1], "mesh" : 0, "name" : "Neptune"}], "samplers" : [{"magFilter" : 9729, "minFilter" : 9987, "wrapS" : 10497, "wrapT" : 10497}], "scene" : 0, "scenes" : [{"nodes" : [0]}], "textures" : [{"sampler" : 0, "source" : 0}]}