{"accessors" : [{"bufferView" : 0, "byteOffset" : 0, "componentType" : 5123, "count" : 990, "type" : "SCALAR", "max" : [824], "min" : [0]}, {"bufferView" : 1, "byteOffset" : 0, "componentType" : 5126, "count" : 825, "type" : "VEC3", "max" : [7.690587997436523, 4.614352226257324, 13.878808975219727], "min" : [-7.690587043762207, -4.614353179931641, 0.45461100339889526], "name" : "POSITION"}, {"bufferView" : 1, "byteOffset" : 12, "componentType" : 5126, "count" : 825, "type" : "VEC3", "max" : [0.9963855147361755, 0.9998083710670471, 1.0000004768371582], "min" : [-0.9963855147361755, -0.9998083710670471, -1.0000044107437134], "name" : "NORMAL"}], "asset" : {"generator" : "Aspose.3D 21.12", "version" : "2.0"}, "buffers" : [{"uri" : "data:application/octet-stream;base64,", "byteLength" : 25748}], "bufferViews" : [{"buffer" : 0, "byteOffset" : 0, "byteLength" : 1980, "target" : 34963}, {"buffer" : 0, "byteOffset" : 1984, "byteLength" : 23760, "byteStride" : 24, "target" : 34962}], "meshes" : [{"primitives" : [{"attributes" : {"POSITION" : 1, "NORMAL" : 2}, "indices" : 0, "mode" : 4}], "name" : ""}], "nodes" : [{"mesh" : 0, "name" : "Sphere"}], "scene" : 0, "scenes" : [{"nodes" : [0]}]}