{"accessors" : [{"bufferView" : 0, "byteOffset" : 0, "componentType" : 5123, "count" : 18144, "type" : "SCALAR", "max" : [14974], "min" : [0]}, {"bufferView" : 1, "byteOffset" : 0, "componentType" : 5126, "count" : 14975, "type" : "VEC3", "max" : [500.0039978027344, 500, 499.9994812011719], "min" : [-499.9959716796875, -500, -500.00054931640625], "name" : "POSITION"}, {"bufferView" : 1, "byteOffset" : 12, "componentType" : 5126, "count" : 14975, "type" : "VEC3", "max" : [0.9990313649177551, 1.0000044107437134, 0.9990313649177551], "min" : [-0.9990299344062805, -1.0000044107437134, -0.9990299344062805], "name" : "NORMAL"}, {"bufferView" : 1, "byteOffset" : 24, "componentType" : 5126, "count" : 14975, "type" : "VEC2", "max" : [1, 1], "min" : [0, -0.00010001659393310547], "name" : "TEXCOORD_0"}], "asset" : {"generator" : "Aspose.3D 21.11", "version" : "2.0"}, "buffers" : [{"uri" : "data:application/octet-stream;base64,", "byteLength" : 616904}], "bufferViews" : [{"buffer" : 0, "byteOffset" : 0, "byteLength" : 36288, "target" : 34963}, {"buffer" : 0, "byteOffset" : 36292, "byteLength" : 580608, "byteStride" : 32, "target" : 34962}], "images" : [{"uri" : "data:image/png;base64,"}], "materials" : [{"name" : "Default OBJ", "pbrMetallicRoughness" : {"baseColorFactor" : [1, 1, 1, 1], "baseColorTexture" : {"index" : 0, "texCoord" : 0}, "metallicFactor" : 0, "roughnessFactor" : 0.8999999761581421}, "emissiveFactor" : [0, 0, 0], "alphaMode" : "OPAQUE", "doubleSided" : false}], "meshes" : [{"primitives" : [{"attributes" : {"POSITION" : 1, "NORMAL" : 2, "TEXCOORD_0" : 3}, "indices" : 0, "material" : 0, "mode" : 4}]}], "nodes" : [{"mesh" : 0, "name" : "cylindrically_mapped_sphere:Mesh"}], "samplers" : [{"magFilter" : 9729, "minFilter" : 9729, "wrapS" : 10497, "wrapT" : 10497}], "scene" : 0, "scenes" : [{"nodes" : [0]}], "textures" : [{"sampler" : 0, "source" : 0}]}