{"accessors" : [{"bufferView" : 0, "byteOffset" : 0, "componentType" : 5123, "count" : 2304, "type" : "SCALAR", "max" : [1821], "min" : [0]}, {"bufferView" : 1, "byteOffset" : 0, "componentType" : 5126, "count" : 1822, "type" : "VEC3", "max" : [3.3820271492004395, 3.377594232559204, 3.388803243637085], "min" : [-3.3820273876190186, -3.377594232559204, -3.388803243637085], "name" : "POSITION"}, {"bufferView" : 1, "byteOffset" : 12, "componentType" : 5126, "count" : 1822, "type" : "VEC3", "max" : [0.9982508420944214, 0.9962959289550781, 0.9998660683631897], "min" : [-0.9982509016990662, -0.9962959289550781, -0.9998660683631897], "name" : "NORMAL"}, {"bufferView" : 1, "byteOffset" : 24, "componentType" : 5126, "count" : 1822, "type" : "VEC2", "max" : [0.9909493923187256, 0.9880044460296631], "min" : [0.009050587192177773, 0.011995553970336914], "name" : "TEXCOORD_0"}], "asset" : {"generator" : "Aspose.3D 21.11", "version" : "2.0"}, "buffers" : [{"uri" : "data:application/octet-stream;base64,", "byteLength" : 78344}], "bufferViews" : [{"buffer" : 0, "byteOffset" : 0, "byteLength" : 4608, "target" : 34963}, {"buffer" : 0, "byteOffset" : 4612, "byteLength" : 73728, "byteStride" : 32, "target" : 34962}], "images" : [{"uri" : "data:image/png;base64,"}], "materials" : [{"name" : "Mars", "pbrMetallicRoughness" : {"baseColorFactor" : [0.800000011920929, 0.800000011920929, 0.800000011920929, 1], "metallicFactor" : 1, "roughnessFactor" : 0.5527864098548889}, "emissiveFactor" : [0, 0, 0], "alphaMode" : "OPAQUE", "doubleSided" : true}, {"name" : "Atmosphere", "pbrMetallicRoughness" : {"baseColorFactor" : [1, 1, 1, 1], "baseColorTexture" : {"index" : 0, "texCoord" : 0}, "metallicFactor" : 1, "roughnessFactor" : 0.5527864098548889}, "emissiveFactor" : [0, 0, 0], "alphaMode" : "OPAQUE", "doubleSided" : true}, {"name" : "Clouds", "pbrMetallicRoughness" : {"baseColorFactor" : [0.800000011920929, 0.800000011920929, 0.800000011920929, 1], "metallicFactor" : 1, "roughnessFactor" : 0.5527864098548889}, "emissiveFactor" : [0, 0, 0], "alphaMode" : "OPAQUE", "doubleSided" : true}, {"name" : "Dust", "pbrMetallicRoughness" : {"baseColorFactor" : [0.800000011920929, 0.800000011920929, 0.800000011920929, 1], "metallicFactor" : 1, "roughnessFactor" : 0.5527864098548889}, "emissiveFactor" : [0, 0, 0], "alphaMode" : "OPAQUE", "doubleSided" : true}], "meshes" : [{"primitives" : [{"attributes" : {"POSITION" : 1, "NORMAL" : 2, "TEXCOORD_0" : 3}, "indices" : 0, "material" : 0, "mode" : 4}]}, {"primitives" : [{"attributes" : {"POSITION" : 1, "NORMAL" : 2, "TEXCOORD_0" : 3}, "indices" : 0, "material" : 1, "mode" : 4}]}, {"primitives" : [{"attributes" : {"POSITION" : 1, "NORMAL" : 2, "TEXCOORD_0" : 3}, "indices" : 0, "material" : 2, "mode" : 4}]}, {"primitives" : [{"attributes" : {"POSITION" : 1, "NORMAL" : 2, "TEXCOORD_0" : 3}, "indices" : 0, "material" : 3, "mode" : 4}]}], "nodes" : [{"matrix" : [1.012507677078247, 0, 0, 0, 0, 1.012507677078247, 0, 0, 0, 0, 1.012507677078247, 0, 0, 0, 0, 1], "mesh" : 1, "name" : "Atmosphere"}, {"matrix" : [1.0084247589111328, 0, 0, 0, 0, 1.0084247589111328, 0, 0, 0, 0, 1.0084247589111328, 0, 0, 0, 0, 1], "mesh" : 2, "name" : "Clouds"}, {"matrix" : [1.004563570022583, 0, 0, 0, 0, 1.004563570022583, 0, 0, 0, 0, 1.004563570022583, 0, 0, 0, 0, 1], "mesh" : 3, "name" : "Dust"}, {"children" : [0, 1, 2], "mesh" : 0, "name" : "Mars"}], "samplers" : [{"magFilter" : 9729, "minFilter" : 9987, "wrapS" : 10497, "wrapT" : 10497}], "scene" : 0, "scenes" : [{"nodes" : [3]}], "textures" : [{"sampler" : 0, "source" : 0}]}